<?xml version="1.0" encoding="utf-8"?>
<!-- Generator: Adobe Illustrator 25.0.1, SVG Export Plug-In . SVG Version: 6.00 Build 0)  -->
<svg version="1.1" id="_x31__x2C_5" xmlns="http://www.w3.org/2000/svg" xmlns:xlink="http://www.w3.org/1999/xlink" x="0px"
	 y="0px" viewBox="0 0 512 512" style="enable-background:new 0 0 512 512;" xml:space="preserve">
<style type="text/css">
	.st0{fill:#17253D;}
	.st1{fill:#00FF00;}
</style>
<rect x="88.4" y="12" class="st0" width="328.3" height="487"/>
<path class="st1" d="M170,94.9c0.1-0.4,0.3-0.8,0.7-1.3c0.4-0.5,0.8-0.9,1.4-1.3c0.5-0.4,1.1-0.7,1.7-1c0.6-0.2,1.2-0.4,1.7-0.4
	h25.7c1.1,0,2.1,0.4,2.9,1.1c0.8,0.7,1.4,1.3,1.8,1.9l2.5,5.7L261,235.5c0.5,1.3,0.4,2.4-0.3,3.3c-0.7,0.8-2,1.3-3.8,1.3h-28.8
	c-1.5,0-2.7-0.3-3.6-0.9c-0.8-0.6-1.5-1.5-2-2.9c-1.3-3.4-2.6-6.8-3.9-10.2c-1.3-3.4-2.5-6.8-3.8-10.2h-53.3
	c-1.3,3.4-2.6,6.8-3.9,10.2c-1.3,3.4-2.6,6.8-3.9,10.2c-0.9,2.5-2.6,3.7-5.1,3.7h-29.6c-1.3,0-2.3-0.3-3.2-1c-0.8-0.7-1-1.7-0.5-3
	L170,94.9z M188.2,137.9c-1.3,3.4-2.6,7.1-3.9,11c-1.3,3.9-2.6,7.9-3.9,11.9c-1.3,4-2.6,8-3.9,11.9c-1.3,3.9-2.6,7.6-3.9,11h30.8
	L188.2,137.9z"/>
<path class="st1" d="M301.9,237.9c-0.7-1.2-1.4-2.4-2-3.7c-0.6-1.3-1.1-2.6-1.7-3.9L246.8,95.5c0-0.3,0-0.6-0.2-0.9
	c-0.1-0.3-0.2-0.5-0.2-0.8c0-1.9,1.2-2.8,3.7-2.8h32.3c2.5,0,4.3,1.3,5.2,3.8l30.6,91.3c2.7-7.6,5.4-15.2,7.9-22.8
	c2.5-7.6,5-15.2,7.4-22.8c2.4-7.6,4.9-15.2,7.4-22.8c2.5-7.6,5.1-15.2,7.9-22.8c0.9-2.5,2.8-3.8,5.5-3.8h31.6c1.5,0,2.6,0.3,3.3,0.9
	c0.6,0.6,1,1.3,1,2.3c0,0.5,0,0.9-0.1,1.1v0.3l-51.8,134.8c-0.3,0.9-0.7,2-1.2,3.1c-0.5,1.1-1,2.2-1.6,3.2c-0.6,1-1.3,1.8-2.1,2.5
	c-0.8,0.7-1.7,1-2.7,1H306C304,240,302.6,239.3,301.9,237.9z"/>
<path class="st1" d="M115.7,274.4c0-1.4,0.4-2.5,1.1-3.4c0.7-0.8,1.8-1.3,3.3-1.3H185c6.9,0,13.3,1.3,19.4,3.9
	c6,2.6,11.3,6.1,15.8,10.5c4.5,4.4,8,9.6,10.6,15.5c2.6,5.9,3.9,12.2,3.9,18.9c0,4.6-0.6,8.9-1.9,13c-1.2,4.1-3,8-5.2,11.5
	c-2.2,3.6-4.8,6.8-7.9,9.7c-3,2.9-6.4,5.4-10,7.5l25.8,48.6c0.5,0.9,1.1,2,1.8,3.3c0.7,1.3,1.1,2.4,1.1,3.3c0,1.1-0.4,1.9-1.1,2.5
	c-0.7,0.6-1.7,0.9-2.9,0.9h-34.4c-1.1,0-2.2-0.3-3.1-1c-0.9-0.7-1.5-1.6-1.8-2.7l-24.4-45.9h-16.3v45.3c0,2.9-1.5,4.3-4.6,4.3h-29.8
	c-1.3,0-2.4-0.4-3.2-1.1c-0.8-0.7-1.2-1.8-1.2-3.3V274.4z M194.3,318.9c0-2-0.4-4-1.1-6c-0.7-2-1.8-3.8-3.1-5.5
	c-1.3-1.7-2.9-3.1-4.8-4.2c-1.9-1.1-3.9-1.9-6.2-2.2c-1.9-0.1-3.6-0.3-5.3-0.4c-1.6-0.1-3.4-0.2-5.4-0.2h-13.8v36.8h18.5
	c1.2,0,2.3,0,3.2-0.1c0.9-0.1,2-0.2,3.1-0.3c2.3-0.3,4.4-1,6.3-2.1c1.9-1.1,3.4-2.5,4.7-4.1c1.3-1.6,2.2-3.5,2.9-5.5
	C194,323.2,194.3,321.1,194.3,318.9z"/>
<path class="st1" d="M243.3,344.4c0-7.1,0.9-13.9,2.7-20.4c1.8-6.5,4.4-12.6,7.7-18.4c3.3-5.7,7.3-10.9,12-15.6
	c4.7-4.7,9.8-8.7,15.5-12c5.7-3.3,11.8-5.9,18.3-7.7c6.5-1.8,13.3-2.8,20.4-2.8c7,0,13.8,0.9,20.4,2.8c6.6,1.8,12.7,4.4,18.4,7.7
	c5.7,3.3,10.9,7.3,15.6,12c4.7,4.7,8.7,9.9,12,15.6c3.3,5.7,5.9,11.8,7.7,18.4c1.8,6.5,2.8,13.3,2.8,20.4c0,7.1-0.9,13.9-2.8,20.4
	c-1.8,6.5-4.4,12.6-7.7,18.3c-3.3,5.7-7.3,10.8-12,15.5c-4.7,4.7-9.9,8.6-15.6,12c-5.7,3.3-11.8,5.9-18.4,7.7S327.1,421,320,421
	c-7.1,0-13.9-0.9-20.4-2.7c-6.5-1.8-12.6-4.4-18.3-7.7c-5.7-3.3-10.9-7.3-15.5-12c-4.7-4.6-8.7-9.8-12-15.5
	c-3.3-5.7-5.9-11.7-7.7-18.3C244.2,358.3,243.3,351.5,243.3,344.4z M282.1,344.3c0,5.6,0.9,10.7,2.8,15.6c1.9,4.8,4.5,9,7.9,12.6
	c3.4,3.6,7.4,6.4,12,8.4c4.6,2,9.7,3.1,15.2,3.1c5.5,0,10.6-1,15.3-3.1c4.6-2,8.7-4.9,12-8.4c3.4-3.6,6-7.8,7.9-12.6
	c1.9-4.8,2.8-10,2.8-15.6c0-5.5-0.9-10.7-2.8-15.5c-1.9-4.9-4.5-9.1-7.9-12.7c-3.4-3.6-7.4-6.5-12-8.5c-4.6-2.1-9.7-3.1-15.3-3.1
	c-5.5,0-10.6,1-15.2,3.1c-4.6,2.1-8.6,4.9-12,8.5c-3.4,3.6-6,7.8-7.9,12.7C283.1,333.7,282.1,338.8,282.1,344.3z"/>
</svg>
